Coordinates
version=1
nRows=13
nColumns=38
inDegrees=no

Units are S.I. units (second, meters, Newtons, ...)
If the header above contains a line with 'inDegrees', this indicates whether rotational values are in degrees (yes) or radians (no).

endheader
time	pelvis_tilt	pelvis_list	pelvis_rotation	pelvis_tx	pelvis_ty	pelvis_tz	hip_flexion_r	hip_adduction_r	hip_rotation_r	knee_angle_r	ankle_angle_r	subtalar_angle_r	mtp_angle_r	hip_flexion_l	hip_adduction_l	hip_rotation_l	knee_angle_l	ankle_angle_l	subtalar_angle_l	mtp_angle_l	lumbar_extension	lumbar_bending	lumbar_rotation	arm_flex_r	arm_add_r	arm_rot_r	elbow_flex_r	pro_sup_r	wrist_flex_r	wrist_dev_r	arm_flex_l	arm_add_l	arm_rot_l	elbow_flex_l	pro_sup_l	wrist_flex_l	wrist_dev_l
2.16	1.34153	1.53516	0.31847	0.647135	1.50302	0.930181	0.413998	-0.0821105	-0.152413	0.257556	-0.183992	0	0	-0.238686	-0.0368494	-0.16674	0.269184	-0.159364	0	0	-0.0591776	0.0717704	-0.13993	-0.0339072	-0.311661	0.304923	0.688925	1.4963	0	0	0.145588	-0.268441	0.272697	0.847793	1.5708	0	0
2.17	1.51059	1.53437	0.151137	0.647552	1.5132	0.929498	0.413345	-0.0795545	-0.161159	0.285075	-0.184806	0	0	-0.251897	-0.0425305	-0.171551	0.278462	-0.157117	0	0	-0.0660089	0.075592	-0.141506	-0.0341539	-0.311575	0.303042	0.689743	1.49828	0	0	0.143395	-0.264923	0.269079	0.846258	1.5708	0	0
2.18	1.63396	1.53388	0.0285368	0.648135	1.52354	0.928741	0.420265	-0.0786457	-0.169339	0.334578	-0.178549	0	0	-0.263549	-0.046677	-0.175655	0.288181	-0.156293	0	0	-0.071021	0.0777574	-0.142556	-0.0347803	-0.311461	0.302001	0.690709	1.50085	0	0	0.139399	-0.261877	0.265569	0.844934	1.5708	0	0
2.19	1.69238	1.53361	-0.029889	0.648914	1.53417	0.927918	0.430145	-0.0775545	-0.173169	0.389384	-0.171767	0	0	-0.272588	-0.0501175	-0.17943	0.298788	-0.156704	0	0	-0.0725128	0.0788678	-0.143357	-0.0358921	-0.311015	0.301951	0.690587	1.50402	0	0	0.133381	-0.259056	0.262378	0.842614	1.5708	0	0
2.2	1.72618	1.5326	-0.0635852	0.649805	1.54512	0.927243	0.436877	-0.0742268	-0.173313	0.435684	-0.167456	0	0	-0.280551	-0.054512	-0.183094	0.310081	-0.158574	0	0	-0.0721207	0.0805038	-0.144636	-0.0371268	-0.310246	0.30253	0.689263	1.50739	0	0	0.125811	-0.256348	0.259961	0.838923	1.5708	0	0
2.21	1.77856	1.52964	-0.114744	0.650745	1.55644	0.926925	0.436747	-0.0677414	-0.17198	0.467142	-0.16381	0	0	-0.289468	-0.0615403	-0.187262	0.321675	-0.162026	0	0	-0.0719873	0.0839436	-0.14718	-0.0386136	-0.309235	0.30303	0.68736	1.51062	0	0	0.116988	-0.253426	0.257729	0.833894	1.5708	0	0
2.22	1.8803	1.52389	-0.213641	0.65173	1.56809	0.927133	0.428268	-0.0584829	-0.169746	0.483137	-0.164338	0	0	-0.301044	-0.0719713	-0.192733	0.33431	-0.167631	0	0	-0.0744737	0.0895788	-0.151489	-0.0401568	-0.308047	0.303345	0.685574	1.51441	0	0	0.107203	-0.250321	0.254981	0.828194	1.5708	0	0
2.23	1.94003	1.51871	-0.270968	0.652814	1.57988	0.927386	0.42069	-0.0506162	-0.169244	0.491989	-0.177006	0	0	-0.309715	-0.0820016	-0.199028	0.349973	-0.174795	0	0	-0.0755508	0.0944275	-0.155592	-0.0424313	-0.306883	0.303187	0.684675	1.5184	0	0	0.0960794	-0.247445	0.252214	0.822477	1.5708	0	0
2.24	1.96808	1.51637	-0.295367	0.653744	1.59204	0.92746	0.414554	-0.0470471	-0.173469	0.498853	-0.19838	0	0	-0.314506	-0.0899264	-0.203666	0.368636	-0.183443	0	0	-0.073173	0.0964408	-0.161116	-0.0469434	-0.305634	0.301821	0.685293	1.52222	0	0	0.0826635	-0.2452	0.250154	0.817085	1.5708	0	0
2.25	1.97691	1.51359	-0.299587	0.654705	1.60443	0.927715	0.405262	-0.0420337	-0.178983	0.499769	-0.2224	0	0	-0.316495	-0.0995396	-0.207138	0.390559	-0.193778	0	0	-0.0692267	0.0988909	-0.16752	-0.0520815	-0.303741	0.299315	0.685283	1.52559	0	0	0.0680912	-0.243183	0.248969	0.810715	1.5708	0	0
2.26	1.98789	1.50984	-0.305747	0.655702	1.61695	0.928251	0.392283	-0.0351864	-0.184235	0.497248	-0.244054	0	0	-0.317011	-0.110737	-0.209784	0.415723	-0.206019	0	0	-0.0653365	0.102162	-0.17398	-0.0575131	-0.301701	0.296045	0.685237	1.52821	0	0	0.0532961	-0.240906	0.248279	0.803061	1.5708	0	0
2.27	1.99367	1.50511	-0.30781	0.656853	1.6295	0.929036	0.378218	-0.0262219	-0.186077	0.495055	-0.260897	0	0	-0.315418	-0.123236	-0.211648	0.44458	-0.220415	0	0	-0.06159	0.10646	-0.179173	-0.062923	-0.299638	0.292387	0.685226	1.52931	0	0	0.0387312	-0.238202	0.247894	0.79407	1.5708	0	0
2.28	1.97271	1.49976	-0.285202	0.658366	1.64196	0.929946	0.366695	-0.0152171	-0.180891	0.494442	-0.273176	0	0	-0.309434	-0.137012	-0.212597	0.478214	-0.236586	0	0	-0.0564297	0.111688	-0.1821	-0.0676519	-0.297198	0.288987	0.684017	1.52902	0	0	0.0248128	-0.235371	0.248602	0.783067	1.5708	0	0
